<svg width="40" height="40" viewBox="0 0 40 40" fill="none" xmlns="http://www.w3.org/2000/svg">
<rect width="40" height="40" rx="5" fill="#3DA9FC"/>
<path d="M29 14.7314C28.3306 15.025 27.6173 15.2196 26.8737 15.3141C27.6387 14.8574 28.2226 14.1396 28.4971 13.2745C27.7838 13.6997 26.9963 14.0001 26.1571 14.1677C25.4798 13.4466 24.5146 13 23.4616 13C21.4186 13 19.7739 14.6582 19.7739 16.6911C19.7739 16.9836 19.7986 17.2649 19.8594 17.5326C16.7915 17.383 14.0769 15.9126 12.2532 13.6727C11.9349 14.2251 11.7481 14.8574 11.7481 15.538C11.7481 16.816 12.4062 17.9489 13.3872 18.6047C12.7944 18.5935 12.2127 18.4214 11.72 18.1502C11.72 18.1615 11.72 18.1761 11.72 18.1907C11.72 19.984 12.9991 21.4735 14.6765 21.8166C14.3761 21.8987 14.0487 21.9381 13.709 21.9381C13.4727 21.9381 13.2342 21.9246 13.0104 21.8751C13.4885 23.3365 14.8452 24.4109 16.4585 24.4457C15.203 25.4278 13.6089 26.0196 11.8831 26.0196C11.5805 26.0196 11.2902 26.0061 11 25.969C12.6346 27.0231 14.5719 27.625 16.661 27.625C23.4515 27.625 27.164 22 27.164 17.1242C27.164 16.9611 27.1583 16.8036 27.1505 16.6472C27.8828 16.1275 28.4982 15.4784 29 14.7314Z" fill="white"/>
</svg>
