<svg width="100" height="20" viewBox="0 0 100 20" fill="none" xmlns="http://www.w3.org/2000/svg">
<path d="M11.8164 5.59017C11.2446 3.83062 8.75536 3.83062 8.18364 5.59017V5.59017C7.92797 6.37706 7.19468 6.90983 6.36729 6.90983V6.90983C4.51719 6.90983 3.74796 9.27729 5.24472 10.3647V10.3647C5.91409 10.8511 6.19418 11.7131 5.9385 12.5V12.5C5.36679 14.2595 7.38067 15.7227 8.87743 14.6353V14.6353C9.5468 14.1489 10.4532 14.1489 11.1226 14.6353V14.6353C12.6193 15.7227 14.6332 14.2595 14.0615 12.5V12.5C13.8058 11.7131 14.0859 10.8511 14.7553 10.3647V10.3647C16.252 9.27729 15.4828 6.90983 13.6327 6.90983V6.90983C12.8053 6.90983 12.072 6.37706 11.8164 5.59017V5.59017Z" fill="#EAC708"/>
<path d="M31.8164 5.59017C31.2446 3.83062 28.7554 3.83062 28.1836 5.59017V5.59017C27.928 6.37706 27.1947 6.90983 26.3673 6.90983V6.90983C24.5172 6.90983 23.748 9.27729 25.2447 10.3647V10.3647C25.9141 10.8511 26.1942 11.7131 25.9385 12.5V12.5C25.3668 14.2595 27.3807 15.7227 28.8774 14.6353V14.6353C29.5468 14.1489 30.4532 14.1489 31.1226 14.6353V14.6353C32.6193 15.7227 34.6332 14.2595 34.0615 12.5V12.5C33.8058 11.7131 34.0859 10.8511 34.7553 10.3647V10.3647C36.252 9.27729 35.4828 6.90983 33.6327 6.90983V6.90983C32.8053 6.90983 32.072 6.37706 31.8164 5.59017V5.59017Z" fill="#EAC708"/>
<path d="M51.8164 5.59017C51.2446 3.83062 48.7554 3.83062 48.1836 5.59017V5.59017C47.928 6.37706 47.1947 6.90983 46.3673 6.90983V6.90983C44.5172 6.90983 43.748 9.27729 45.2447 10.3647V10.3647C45.9141 10.8511 46.1942 11.7131 45.9385 12.5V12.5C45.3668 14.2595 47.3807 15.7227 48.8774 14.6353V14.6353C49.5468 14.1489 50.4532 14.1489 51.1226 14.6353V14.6353C52.6193 15.7227 54.6332 14.2595 54.0615 12.5V12.5C53.8058 11.7131 54.0859 10.8511 54.7553 10.3647V10.3647C56.252 9.27729 55.4828 6.90983 53.6327 6.90983V6.90983C52.8053 6.90983 52.072 6.37706 51.8164 5.59017V5.59017Z" fill="#EAC708"/>
<path d="M71.8164 5.59017C71.2446 3.83062 68.7554 3.83062 68.1836 5.59017V5.59017C67.928 6.37706 67.1947 6.90983 66.3673 6.90983V6.90983C64.5172 6.90983 63.748 9.27729 65.2447 10.3647V10.3647C65.9141 10.8511 66.1942 11.7131 65.9385 12.5V12.5C65.3668 14.2595 67.3807 15.7227 68.8774 14.6353V14.6353C69.5468 14.1489 70.4532 14.1489 71.1226 14.6353V14.6353C72.6193 15.7227 74.6332 14.2595 74.0615 12.5V12.5C73.8058 11.7131 74.0859 10.8511 74.7553 10.3647V10.3647C76.252 9.27729 75.4828 6.90983 73.6327 6.90983V6.90983C72.8053 6.90983 72.072 6.37706 71.8164 5.59017V5.59017Z" fill="#EAC708"/>
<path d="M91.8164 5.59017C91.2446 3.83062 88.7554 3.83062 88.1836 5.59017V5.59017C87.928 6.37706 87.1947 6.90983 86.3673 6.90983V6.90983C84.5172 6.90983 83.748 9.27729 85.2447 10.3647V10.3647C85.9141 10.8511 86.1942 11.7131 85.9385 12.5V12.5C85.3668 14.2595 87.3807 15.7227 88.8774 14.6353V14.6353C89.5468 14.1489 90.4532 14.1489 91.1226 14.6353V14.6353C92.6193 15.7227 94.6332 14.2595 94.0615 12.5V12.5C93.8058 11.7131 94.0859 10.8511 94.7553 10.3647V10.3647C96.252 9.27729 95.4828 6.90983 93.6327 6.90983V6.90983C92.8053 6.90983 92.072 6.37706 91.8164 5.59017V5.59017Z" fill="#EAC708"/>
</svg>
