<svg width="30" height="30" viewBox="0 0 30 30" fill="none" xmlns="http://www.w3.org/2000/svg">
<rect width="30" height="30" rx="5" fill="#094067"/>
<path d="M15.0001 13.4102C14.1234 13.4102 13.4102 14.1234 13.4102 15C13.4102 15.8766 14.1234 16.5898 15.0001 16.5898C15.8767 16.5898 16.5899 15.8766 16.5899 15C16.5899 14.1234 15.8767 13.4102 15.0001 13.4102Z" fill="white"/>
<path d="M18.138 10H11.862C10.8353 10 10 10.8353 10 11.862V18.138C10 19.1647 10.8353 20 11.862 20H18.138C19.1647 20 20 19.1647 20 18.138V11.862C20 10.8353 19.1647 10 18.138 10ZM15 17.1758C13.8003 17.1758 12.8242 16.1997 12.8242 15C12.8242 13.8003 13.8003 12.8242 15 12.8242C16.1997 12.8242 17.1758 13.8003 17.1758 15C17.1758 16.1997 16.1997 17.1758 15 17.1758ZM18.0313 12.383C17.9768 12.4375 17.9014 12.4687 17.8243 12.4687C17.7471 12.4687 17.6715 12.4375 17.6171 12.383C17.5626 12.3285 17.5313 12.2529 17.5313 12.1758C17.5313 12.0986 17.5626 12.0232 17.6171 11.9687C17.6715 11.914 17.7471 11.8828 17.8243 11.8828C17.9012 11.8828 17.9768 11.914 18.0313 11.9687C18.086 12.0232 18.1172 12.0986 18.1172 12.1758C18.1172 12.2529 18.086 12.3285 18.0313 12.383Z" fill="white"/>
</svg>
