<svg width="163" height="136" viewBox="0 0 163 136" fill="none" xmlns="http://www.w3.org/2000/svg">
<path d="M3.50868 72.729C3.50868 72.729 63.1044 11.2201 110.009 5.409C154.009 -13.971 169.009 23.259 159.509 45.699C150.009 68.139 152.509 97.209 147.009 113.019C141.509 128.829 94.5087 138.519 39.0087 134.439C-16.4913 130.359 3.50868 72.729 3.50868 72.729Z" fill="#90B4CE"/>
<path d="M103.487 90.8075C102.818 90.8075 102.276 91.3605 102.276 92.0426C102.276 101.352 94.8502 108.926 85.723 108.926C76.5958 108.926 69.1704 101.352 69.1704 92.0426V89.4507L75.8935 76.8372C80.7219 73.3962 83.0176 67.1983 82.288 59.6307C83.9968 59.0571 85.2345 57.4149 85.2345 55.4823C85.2345 53.0744 83.314 51.1155 80.9533 51.1155C78.5926 51.1155 76.6721 53.0744 76.6721 55.4823C76.6721 57.5054 78.0282 59.2112 79.8617 59.7049C80.5686 66.6073 78.5206 72.1661 74.1717 75.0446C70.3682 77.5621 65.3991 77.5937 61.5125 75.125C57.0141 72.2677 54.8104 66.6777 55.3917 59.6994C57.2157 59.1993 58.5628 57.4985 58.5628 55.4823C58.5628 53.0744 56.6422 51.1155 54.2816 51.1155C51.9209 51.1155 50 53.0743 50 55.4822C50 57.4224 51.2474 59.0704 52.9667 59.6377C52.3489 67.5048 54.9611 73.8721 60.2296 77.2202L66.7484 89.4506V92.0426C66.7484 97.1922 68.7275 102.047 72.3212 105.712C75.9148 109.378 80.6743 111.397 85.7229 111.397C90.7715 111.397 95.5311 109.378 99.1247 105.712C102.718 102.047 104.697 97.1923 104.697 92.0426C104.697 91.3605 104.155 90.8075 103.487 90.8075ZM79.0937 55.4822C79.0937 54.4364 79.9278 53.5856 80.9531 53.5856C81.9784 53.5856 82.8124 54.4364 82.8124 55.4822C82.8124 56.528 81.9784 57.3788 80.9531 57.3788C79.9278 57.3788 79.0937 56.528 79.0937 55.4822ZM52.4218 55.4822C52.4218 54.4364 53.2559 53.5856 54.2812 53.5856C55.3065 53.5856 56.1406 54.4364 56.1406 55.4822C56.1406 56.528 55.3065 57.3788 54.2812 57.3788C53.2559 57.3788 52.4218 56.528 52.4218 55.4822ZM63.8614 78.8618C65.1476 79.2358 66.4739 79.4233 67.7988 79.4232C69.2614 79.4232 70.7217 79.1933 72.1237 78.7379L67.9595 86.5506L63.8614 78.8618Z" fill="white"/>
</svg>
