<svg width="30" height="30" viewBox="0 0 30 30" fill="none" xmlns="http://www.w3.org/2000/svg">
<rect width="30" height="30" rx="5" fill="#094067"/>
<path d="M21.5485 13H20.0905V14.4513H18.6392V15.9093H20.0905V17.3606H21.5485V15.9093H22.9998V14.4513H21.5485V13Z" fill="white"/>
<path d="M11.9997 20C14.8851 20 16.8017 17.9746 16.8017 15.116C16.8017 14.7886 16.7677 14.536 16.7204 14.284H12.0004V16.0026H14.8384C14.7224 16.7326 13.9791 18.158 12.0004 18.158C10.2957 18.158 8.90375 16.746 8.90375 15C8.90375 13.254 10.2951 11.8413 12.0004 11.8413C12.9757 11.8413 13.6237 12.2573 13.9924 12.612L15.3497 11.3093C14.4757 10.4913 13.3504 10 11.9997 10C9.23708 10 6.99976 12.2373 6.99976 15C6.99976 17.7626 9.23708 20 11.9997 20Z" fill="white"/>
</svg>
