<svg width="163" height="133" viewBox="0 0 163 133" fill="none" xmlns="http://www.w3.org/2000/svg">
<path d="M3.50868 71.3029C3.50868 71.3029 63.1044 11.0001 110.009 5.30294C154.009 -13.6971 169.009 22.8029 159.509 44.8029C150.009 66.8029 152.509 95.3029 147.009 110.803C141.509 126.303 94.5087 135.803 39.0087 131.803C-16.4913 127.803 3.50868 71.3029 3.50868 71.3029Z" fill="#90B4CE"/>
<path d="M103.487 89.027C102.818 89.027 102.276 89.5691 102.276 90.2379C102.276 99.3651 94.8502 106.791 85.723 106.791C76.5958 106.791 69.1704 99.3651 69.1704 90.2379V87.6968L75.8935 75.3305C80.7219 71.9571 83.0176 65.8807 82.288 58.4615C83.9968 57.8992 85.2345 56.2891 85.2345 54.3944C85.2345 52.0337 83.314 50.1132 80.9533 50.1132C78.5926 50.1132 76.6721 52.0337 76.6721 54.3944C76.6721 56.3779 78.0282 58.0502 79.8617 58.5342C80.5686 65.3013 78.5206 70.7511 74.1717 73.5731C70.3682 76.0412 65.3991 76.0722 61.5125 73.652C57.0141 70.8506 54.8104 65.3703 55.3917 58.5288C57.2157 58.0385 58.5628 56.3711 58.5628 54.3944C58.5628 52.0337 56.6422 50.1132 54.2816 50.1132C51.9209 50.1132 50 52.0336 50 54.3943C50 56.2965 51.2474 57.9121 52.9667 58.4683C52.3489 66.1812 54.9611 72.4236 60.2296 75.7061L66.7484 87.6967V90.2379C66.7484 95.2864 68.7275 100.046 72.3212 103.64C75.9148 107.233 80.6743 109.212 85.7229 109.212C90.7715 109.212 95.5311 107.233 99.1247 103.64C102.718 100.046 104.697 95.2866 104.697 90.2379C104.697 89.5691 104.155 89.027 103.487 89.027ZM79.0937 54.3943C79.0937 53.369 79.9278 52.5349 80.9531 52.5349C81.9784 52.5349 82.8124 53.369 82.8124 54.3943C82.8124 55.4196 81.9784 56.2538 80.9531 56.2538C79.9278 56.2538 79.0937 55.4196 79.0937 54.3943ZM52.4218 54.3943C52.4218 53.369 53.2559 52.5349 54.2812 52.5349C55.3065 52.5349 56.1406 53.369 56.1406 54.3943C56.1406 55.4196 55.3065 56.2538 54.2812 56.2538C53.2559 56.2538 52.4218 55.4196 52.4218 54.3943ZM63.8614 77.3155C65.1476 77.6821 66.4739 77.866 67.7988 77.8658C69.2614 77.8658 70.7217 77.6405 72.1237 77.194L67.9595 84.8536L63.8614 77.3155Z" fill="white"/>
<path d="M103.487 85.7008C102.818 85.7008 102.276 86.2429 102.276 86.9117V86.9287C102.276 87.5975 102.818 88.1396 103.487 88.1396C104.155 88.1396 104.697 87.5975 104.697 86.9287V86.9117C104.697 86.2429 104.155 85.7008 103.487 85.7008Z" fill="white"/>
<path d="M103.487 64.1285C98.7929 64.1285 94.9743 67.9605 94.9743 72.6706C94.9743 76.968 98.1537 80.5328 102.276 81.1247V83.5611C102.276 84.2299 102.818 84.772 103.487 84.772C104.155 84.772 104.697 84.2299 104.697 83.5611V81.1248C108.82 80.5329 111.999 76.9681 111.999 72.6706C111.999 67.9605 108.18 64.1285 103.487 64.1285ZM103.487 74.1642C102.669 74.1642 102.004 73.4943 102.004 72.6706C102.004 71.8469 102.669 71.1769 103.487 71.1769C104.304 71.1769 104.969 71.847 104.969 72.6706C104.969 73.4943 104.304 74.1642 103.487 74.1642ZM104.697 78.669V76.3925C106.259 75.8802 107.391 74.4058 107.391 72.6706C107.391 70.5115 105.64 68.7551 103.487 68.7551C101.334 68.7551 99.5821 70.5116 99.5821 72.6706C99.5821 74.4057 100.714 75.88 102.276 76.3923V78.6689C99.4955 78.103 97.3961 75.6287 97.3961 72.6706C97.3961 69.2959 100.128 66.5504 103.487 66.5504C106.845 66.5504 109.577 69.2959 109.577 72.6706C109.577 75.6289 107.478 78.1032 104.697 78.669Z" fill="white"/>
<path d="M85.723 90.1626C82.1626 90.1626 79.2659 93.0688 79.2659 96.6411C79.2659 100.213 82.1626 103.12 85.723 103.12C89.2835 103.12 92.1802 100.213 92.1802 96.6411C92.1802 93.0688 89.2835 90.1626 85.723 90.1626ZM85.723 100.698C83.498 100.698 81.6878 98.8778 81.6878 96.641C81.6878 94.4042 83.498 92.5843 85.723 92.5843C87.9481 92.5843 89.7584 94.4041 89.7584 96.641C89.7584 98.8778 87.9481 100.698 85.723 100.698Z" fill="white"/>
<path d="M93.4672 83.4825C91.3448 83.4825 89.618 85.3085 89.618 87.5527C89.618 89.797 91.3448 91.6229 93.4672 91.6229C95.5897 91.6229 97.3166 89.797 97.3166 87.5527C97.3166 85.3084 95.5897 83.4825 93.4672 83.4825ZM93.4672 89.201C92.6801 89.201 92.0399 88.4615 92.0399 87.5526C92.0399 86.6438 92.6801 85.9043 93.4672 85.9043C94.2543 85.9043 94.8947 86.6438 94.8947 87.5526C94.8947 88.4615 94.2543 89.201 93.4672 89.201Z" fill="white"/>
<path d="M85.8084 79.9083C83.6859 79.9083 81.9592 81.7343 81.9592 83.9786C81.9592 86.2229 83.686 88.0488 85.8084 88.0488C87.9309 88.0488 89.6576 86.2229 89.6576 83.9786C89.6576 81.7343 87.9309 79.9083 85.8084 79.9083ZM85.8084 85.627C85.0214 85.627 84.3811 84.8876 84.3811 83.9786C84.3811 83.0697 85.0213 82.3302 85.8084 82.3302C86.5955 82.3302 87.2358 83.0697 87.2358 83.9786C87.2358 84.8875 86.5955 85.627 85.8084 85.627Z" fill="white"/>
<path d="M77.9788 83.4824C75.8565 83.4824 74.1297 85.3084 74.1297 87.5526C74.1297 89.7969 75.8565 91.6228 77.9788 91.6228C80.1013 91.6228 81.8281 89.7969 81.8281 87.5526C81.8281 85.3084 80.1013 83.4824 77.9788 83.4824ZM77.9788 89.2011C77.1919 89.2011 76.5515 88.4616 76.5515 87.5527C76.5515 86.6438 77.1919 85.9044 77.9788 85.9044C78.7659 85.9044 79.4063 86.6439 79.4063 87.5527C79.4063 88.4616 78.7659 89.2011 77.9788 89.2011Z" fill="white"/>
</svg>
