<svg width="112" height="233" viewBox="0 0 112 233" fill="none" xmlns="http://www.w3.org/2000/svg">
<path d="M47.7394 49.922C78.9406 39.6256 103.382 12.3505 111.702 0V232.059C106.892 232.059 92.9812 227.223 75.8205 207.878C54.3697 183.697 68.0202 165.367 54.7597 146.256C44.2054 131.045 8.73788 62.7925 47.7394 49.922Z" fill="#3DA9FC"/>
<path d="M47.2793 97.1078C46.9598 95.7204 45.9689 94.6057 44.6286 94.126C43.2883 93.6463 41.8152 93.8792 40.6881 94.7489L37.9719 96.8443C37.5212 97.1919 37.2012 97.6654 37.0466 98.2131C36.8919 98.761 36.9171 99.3317 37.1194 99.864C37.3221 100.396 37.6829 100.839 38.1627 101.146C38.6426 101.452 39.1966 101.593 39.7646 101.553L39.8027 101.55C41.2282 101.46 42.6377 101.97 43.6757 102.953C43.9435 103.206 44.2549 103.397 44.5946 103.519C44.7793 103.585 44.9726 103.63 45.1717 103.654C45.737 103.722 46.2971 103.608 46.7915 103.326C47.2856 103.043 47.6674 102.618 47.8956 102.096C48.1238 101.574 48.1769 101.006 48.0492 100.451L47.2793 97.1078Z" fill="#094067" fill-opacity="0.8"/>
<path d="M39.4157 94.2896C40.0055 94.276 40.549 93.9991 40.946 93.5099C41.3239 93.0444 41.5237 92.4377 41.5087 91.8014C41.4933 91.1654 41.2649 90.5689 40.8654 90.1217C40.4457 89.6521 39.8899 89.4011 39.3007 89.4154C38.1159 89.4431 37.1773 90.5591 37.2084 91.9038C37.2344 92.9746 37.868 93.8714 38.7235 94.1776C38.9419 94.2558 39.1748 94.2954 39.4157 94.2896Z" fill="#094067" fill-opacity="0.8"/>
<path d="M43.5604 93.3696C44.8624 93.8355 46.3536 93.0078 46.8845 91.5244C47.4155 90.0406 46.7882 88.4544 45.4862 87.9884C44.1843 87.5225 42.6931 88.3505 42.1621 89.8343C41.6312 91.3177 42.2585 92.9036 43.5604 93.3696Z" fill="#094067" fill-opacity="0.8"/>
<path d="M47.4018 95.49L47.4019 95.49C47.5784 95.6282 47.7713 95.7331 47.9748 95.8059C48.9243 96.1457 50.0971 95.7858 50.8303 94.85C51.2524 94.3114 51.4704 93.6601 51.444 93.0163C51.4166 92.3424 51.1281 91.7571 50.6317 91.3682C50.1351 90.9792 49.4977 90.8392 48.8368 90.9738C48.2054 91.1023 47.6253 91.4698 47.2034 92.0085C46.3132 93.1449 46.4022 94.7067 47.4018 95.49Z" fill="#094067" fill-opacity="0.8"/>
<path d="M52.4869 96.9557L52.4866 96.9552C51.8261 95.9705 50.3804 95.7774 49.2635 96.525C48.1471 97.2733 47.7752 98.6832 48.4342 99.6679C48.6745 100.027 49.0194 100.281 49.4148 100.423C50.104 100.669 50.9468 100.574 51.6576 100.099C52.7739 99.3505 53.1459 97.9406 52.4869 96.9557Z" fill="#094067" fill-opacity="0.8"/>
<path d="M25.7838 95.3059C25.4643 93.9186 24.4734 92.8038 23.1332 92.3242C21.7929 91.8445 20.3197 92.0774 19.1926 92.9471L16.4764 95.0425C16.0257 95.39 15.7057 95.8635 15.5511 96.4113C15.3964 96.9592 15.4216 97.5299 15.6239 98.0622C15.8266 98.5942 16.1874 99.0374 16.6672 99.3439C17.1471 99.6504 17.7011 99.7911 18.2691 99.751L18.3072 99.7482C19.7327 99.6582 21.1422 100.168 22.1802 101.151C22.448 101.404 22.7594 101.595 23.0991 101.717C23.2838 101.783 23.4771 101.829 23.6762 101.852C24.2416 101.92 24.8016 101.807 25.296 101.524C25.7901 101.241 26.1719 100.816 26.4001 100.294C26.6283 99.7726 26.6814 99.2037 26.5537 98.6488L25.7838 95.3059Z" fill="#094067" fill-opacity="0.8"/>
<path d="M17.9203 92.4877C18.5102 92.4741 19.0537 92.1972 19.4507 91.708C19.8286 91.2425 20.0284 90.6358 20.0133 89.9995C19.998 89.3635 19.7695 88.7671 19.37 88.3199C18.9504 87.8502 18.3945 87.5992 17.8054 87.6135C16.6205 87.6412 15.682 88.7572 15.713 90.1019C15.7391 91.1727 16.3727 92.0695 17.2281 92.3757C17.4466 92.4539 17.6795 92.4935 17.9203 92.4877Z" fill="#094067" fill-opacity="0.8"/>
<path d="M22.0648 91.5677C23.3668 92.0337 24.858 91.206 25.3889 89.7225C25.9199 88.2388 25.2926 86.6526 23.9906 86.1866C22.6887 85.7206 21.1975 86.5487 20.6665 88.0325C20.1356 89.5159 20.7629 91.1018 22.0648 91.5677Z" fill="#094067" fill-opacity="0.8"/>
<path d="M25.9064 93.6882L25.9065 93.6882C26.083 93.8264 26.276 93.9312 26.4794 94.0041C27.429 94.3439 28.6017 93.984 29.3349 93.0482C29.7571 92.5096 29.9751 91.8583 29.9487 91.2145C29.9212 90.5406 29.6327 89.9553 29.1363 89.5664C28.6398 89.1774 28.0024 89.0374 27.3414 89.1719C26.7101 89.3004 26.13 89.668 25.7081 90.2067C24.8178 91.3431 24.9068 92.9048 25.9064 93.6882Z" fill="#094067" fill-opacity="0.8"/>
<path d="M30.9915 95.1538L30.9913 95.1533C30.3307 94.1687 28.885 93.9756 27.7681 94.7231C26.6518 95.4714 26.2798 96.8814 26.9388 97.866C27.1791 98.2253 27.524 98.4793 27.9194 98.6208C28.6086 98.8675 29.4515 98.7723 30.1623 98.297C31.2785 97.5487 31.6505 96.1387 30.9915 95.1538Z" fill="#094067" fill-opacity="0.8"/>
<path d="M32.5934 120.993C32.2739 119.606 31.283 118.491 29.9427 118.012C28.6024 117.532 27.1293 117.765 26.0022 118.634L23.2859 120.73C22.8353 121.077 22.5153 121.551 22.3607 122.099C22.206 122.647 22.2312 123.217 22.4335 123.75C22.6362 124.282 22.997 124.725 23.4768 125.031C23.9567 125.338 24.5106 125.478 25.0787 125.438L25.1168 125.436C26.5422 125.346 27.9518 125.855 28.9898 126.838C29.2576 127.092 29.569 127.283 29.9087 127.404C30.0934 127.47 30.2867 127.516 30.4858 127.54C31.0511 127.607 31.6112 127.494 32.1056 127.211C32.5996 126.929 32.9815 126.503 33.2097 125.982C33.4379 125.46 33.491 124.891 33.3633 124.336L32.5934 120.993Z" fill="#094067" fill-opacity="0.8"/>
<path d="M24.73 118.175C25.3199 118.161 25.8634 117.885 26.2604 117.395C26.6382 116.93 26.8381 116.323 26.823 115.687C26.8076 115.051 26.5792 114.454 26.1797 114.007C25.7601 113.538 25.2042 113.287 24.6151 113.301C23.4302 113.329 22.4917 114.445 22.5227 115.789C22.5488 116.86 23.1823 117.757 24.0378 118.063C24.2562 118.141 24.4892 118.181 24.73 118.175Z" fill="#094067" fill-opacity="0.8"/>
<path d="M28.8745 117.255C30.1765 117.721 31.6677 116.893 32.1986 115.41C32.7296 113.926 32.1023 112.34 30.8003 111.874C29.4984 111.408 28.0072 112.236 27.4762 113.72C26.9453 115.203 27.5726 116.789 28.8745 117.255Z" fill="#094067" fill-opacity="0.8"/>
<path d="M32.7161 119.375L32.7162 119.376C32.8927 119.514 33.0857 119.619 33.2891 119.691C34.2387 120.031 35.4114 119.671 36.1446 118.736C36.5668 118.197 36.7848 117.546 36.7584 116.902C36.7309 116.228 36.4424 115.643 35.946 115.254C35.4494 114.865 34.812 114.725 34.1511 114.859C33.5197 114.988 32.9397 115.355 32.5177 115.894C31.6275 117.03 31.7165 118.592 32.7161 119.375Z" fill="#094067" fill-opacity="0.8"/>
<path d="M37.8012 120.841L37.801 120.841C37.1404 119.856 35.6947 119.663 34.5778 120.41C33.4614 121.159 33.0895 122.569 33.7485 123.553C33.9888 123.913 34.3337 124.167 34.7291 124.308C35.4183 124.555 36.2612 124.46 36.972 123.984C38.0882 123.236 38.4602 121.826 37.8012 120.841Z" fill="#094067" fill-opacity="0.8"/>
<path d="M59.2658 123.214C58.9463 121.827 57.9555 120.712 56.6152 120.232C55.2749 119.753 53.8018 119.986 52.6747 120.855L49.9584 122.951C49.5078 123.298 49.1878 123.772 49.0331 124.32C48.8784 124.867 48.9037 125.438 49.106 125.97C49.3087 126.502 49.6694 126.946 50.1493 127.252C50.6291 127.559 51.1831 127.699 51.7512 127.659L51.7893 127.656C53.2147 127.566 54.6243 128.076 55.6623 129.059C55.9301 129.312 56.2414 129.504 56.5812 129.625C56.7659 129.691 56.9592 129.737 57.1583 129.761C57.7236 129.828 58.2837 129.715 58.778 129.432C59.2721 129.149 59.654 128.724 59.8822 128.203C60.1104 127.681 60.1635 127.112 60.0358 126.557L59.2658 123.214Z" fill="#094067" fill-opacity="0.8"/>
<path d="M51.4024 120.396C51.9922 120.382 52.5357 120.106 52.9327 119.616C53.3106 119.151 53.5104 118.544 53.4954 117.908C53.48 117.272 53.2516 116.675 52.8521 116.228C52.4324 115.758 51.8765 115.508 51.2874 115.522C50.1026 115.55 49.164 116.666 49.1951 118.01C49.2211 119.081 49.8547 119.978 50.7102 120.284C50.9286 120.362 51.1615 120.402 51.4024 120.396Z" fill="#094067" fill-opacity="0.8"/>
<path d="M55.547 119.476C56.849 119.942 58.3402 119.114 58.8711 117.631C59.4021 116.147 58.7748 114.561 57.4728 114.095C56.1709 113.629 54.6797 114.457 54.1487 115.941C53.6178 117.424 54.245 119.01 55.547 119.476Z" fill="#094067" fill-opacity="0.8"/>
<path d="M59.3884 121.596L59.3886 121.596C59.5651 121.735 59.758 121.84 59.9615 121.912C60.911 122.252 62.0837 121.892 62.817 120.956C63.2391 120.418 63.4571 119.767 63.4307 119.123C63.4032 118.449 63.1148 117.864 62.6183 117.475C62.1218 117.086 61.4844 116.946 60.8235 117.08C60.1921 117.209 59.612 117.576 59.1901 118.115C58.2999 119.251 58.3889 120.813 59.3884 121.596Z" fill="#094067" fill-opacity="0.8"/>
<path d="M64.4734 123.062L64.4732 123.062C63.8127 122.077 62.3669 121.884 61.25 122.631C60.1337 123.38 59.7618 124.79 60.4208 125.774C60.6611 126.134 61.006 126.388 61.4014 126.529C62.0905 126.776 62.9334 126.681 63.6442 126.205C64.7604 125.457 65.1325 124.047 64.4734 123.062Z" fill="#094067" fill-opacity="0.8"/>
</svg>
